<svg width="85" height="39" viewBox="0 0 85 39" fill="none" xmlns="http://www.w3.org/2000/svg">
<path d="M1.76483 21.3908H82.6628C83.5338 21.3908 84.2407 20.6295 84.2407 19.6915C84.2407 18.7535 83.5338 17.9922 82.6628 17.9922H1.76483C0.893845 17.9922 0.186958 18.7535 0.186958 19.6915C0.186958 20.6295 0.893845 21.3908 1.76483 21.3908Z" fill="white"/>
<path d="M64.256 38.3846C64.4531 38.3846 64.6501 38.3144 64.801 38.1753L84.1009 20.1958C84.2441 20.061 84.3257 19.8789 84.3257 19.6882C84.3257 19.4975 84.2441 19.3153 84.1009 19.1806L64.7994 1.20972C64.4992 0.930093 64.0112 0.930093 63.7111 1.20972C63.4109 1.48935 63.4109 1.94393 63.7111 2.22356L82.4676 19.6882L63.7111 37.16C63.4109 37.4396 63.4109 37.8942 63.7111 38.1738C63.8619 38.3144 64.059 38.3846 64.256 38.3846Z" fill="white" stroke="white" stroke-width="0.681818"/>
</svg>
