<svg width="86" height="39" viewBox="0 0 86 39" fill="none" xmlns="http://www.w3.org/2000/svg">
<path d="M83.5501 21.3908H2.6521C1.78111 21.3908 1.07422 20.6295 1.07422 19.6915C1.07422 18.7535 1.78111 17.9922 2.6521 17.9922H83.5501C84.4211 17.9922 85.128 18.7535 85.128 19.6915C85.128 20.6295 84.4211 21.3908 83.5501 21.3908Z" fill="white"/>
<path d="M21.0589 38.3846C20.8619 38.3846 20.6648 38.3144 20.514 38.1753L1.21402 20.1958C1.07085 20.061 0.989258 19.8789 0.989258 19.6882C0.989258 19.4975 1.07085 19.3153 1.21402 19.1806L20.5155 1.20972C20.8157 0.930093 21.3037 0.930093 21.6039 1.20972C21.9041 1.48935 21.9041 1.94393 21.6039 2.22356L2.84736 19.6882L21.6039 37.16C21.9041 37.4396 21.9041 37.8942 21.6039 38.1738C21.453 38.3144 21.256 38.3846 21.0589 38.3846Z" fill="white" stroke="white" stroke-width="0.681818"/>
</svg>
