<svg width="21" height="21" viewBox="0 0 21 21" fill="none" xmlns="http://www.w3.org/2000/svg">
<g clip-path="url(#clip0_85_8781)">
<path d="M10.5035 5.10938C7.52586 5.10938 5.11523 7.52263 5.11523 10.4976C5.11523 13.4753 7.52848 15.8859 10.5035 15.8859C13.4811 15.8859 15.8917 13.4726 15.8917 10.4976C15.8917 7.52 13.4785 5.10938 10.5035 5.10938ZM10.5035 13.995C8.57061 13.995 7.00611 12.4296 7.00611 10.4976C7.00611 8.56563 8.57148 7.00025 10.5035 7.00025C12.4355 7.00025 14.0009 8.56563 14.0009 10.4976C14.0017 12.4296 12.4364 13.995 10.5035 13.995Z" fill="white"/>
<path d="M14.8297 0.0659633C12.8977 -0.0241617 8.11232 -0.0197867 6.17857 0.0659633C4.47932 0.145588 2.98045 0.555963 1.77207 1.76434C-0.247426 3.78384 0.0106989 6.50509 0.0106989 10.496C0.0106989 14.5805 -0.216801 17.2387 1.77207 19.2276C3.79945 21.2541 6.56007 20.989 10.5037 20.989C14.5497 20.989 15.9462 20.9916 17.3768 20.4377C19.3219 19.6826 20.7902 17.944 20.9337 14.8211C21.0247 12.8882 21.0194 8.10371 20.9337 6.16996C20.7604 2.48359 18.7821 0.247963 14.8297 0.0659633ZM17.8878 17.8915C16.5639 19.2153 14.7273 19.0972 10.4783 19.0972C6.10332 19.0972 4.34895 19.162 3.06882 17.8783C1.59445 16.411 1.86132 14.0546 1.86132 10.482C1.86132 5.64759 1.3652 2.16596 6.21707 1.91746C7.33182 1.87809 7.65995 1.86496 10.4661 1.86496L10.5054 1.89121C15.1683 1.89121 18.8267 1.40296 19.0463 6.25396C19.0962 7.36084 19.1076 7.69334 19.1076 10.4951C19.1067 14.8193 19.1889 16.5842 17.8878 17.8915Z" fill="white"/>
<path d="M16.1053 6.15496C16.8007 6.15496 17.3644 5.59123 17.3644 4.89584C17.3644 4.20045 16.8007 3.63672 16.1053 3.63672C15.4099 3.63672 14.8462 4.20045 14.8462 4.89584C14.8462 5.59123 15.4099 6.15496 16.1053 6.15496Z" fill="white"/>
</g>
<defs>
<clipPath id="clip0_85_8781">
<rect width="21" height="21" fill="white"/>
</clipPath>
</defs>
</svg>
