<svg width="35" height="35" viewBox="0 0 35 35" fill="none" xmlns="http://www.w3.org/2000/svg">
<g clip-path="url(#clip0_85_8012)">
<path d="M17.4357 8.48047C12.4928 8.48047 8.49121 12.4865 8.49121 17.425C8.49121 22.3678 12.4972 26.3695 17.4357 26.3695C22.3786 26.3695 26.3802 22.3635 26.3802 17.425C26.3802 12.4821 22.3742 8.48047 17.4357 8.48047ZM17.4357 23.2306C14.2271 23.2306 11.6301 20.6321 11.6301 17.425C11.6301 14.2178 14.2286 11.6193 17.4357 11.6193C20.6428 11.6193 23.2413 14.2178 23.2413 17.425C23.2428 20.6321 20.6443 23.2306 17.4357 23.2306Z" fill="white"/>
<path d="M24.6173 0.109499C21.4102 -0.0401084 13.4665 -0.0328459 10.2564 0.109499C7.43568 0.241677 4.94754 0.922899 2.94164 2.9288C-0.410727 6.28117 0.0177601 10.7984 0.0177601 17.4233C0.0177601 24.2036 -0.35989 28.6163 2.94164 31.9178C6.30708 35.2818 10.8897 34.8417 17.4361 34.8417C24.1525 34.8417 26.4707 34.846 28.8455 33.9266C32.0744 32.6731 34.5117 29.787 34.7499 24.603C34.901 21.3944 34.8923 13.4522 34.7499 10.2421C34.4623 4.12276 31.1782 0.411619 24.6173 0.109499ZM29.6938 29.6998C27.4962 31.8975 24.4474 31.7014 17.394 31.7014C10.1315 31.7014 7.21925 31.8089 5.09425 29.678C2.64678 27.2422 3.0898 23.3306 3.0898 17.4001C3.0898 9.375 2.26623 3.5955 10.3203 3.18299C12.1708 3.11763 12.7155 3.09584 17.3737 3.09584L17.439 3.13941C25.1794 3.13941 31.2523 2.32892 31.6169 10.3816C31.6997 12.219 31.7186 12.7709 31.7186 17.4218C31.7171 24.6001 31.8537 27.5298 29.6938 29.6998Z" fill="white"/>
<path d="M26.7347 10.2154C27.889 10.2154 28.8248 9.27965 28.8248 8.1253C28.8248 6.97094 27.889 6.03516 26.7347 6.03516C25.5803 6.03516 24.6445 6.97094 24.6445 8.1253C24.6445 9.27965 25.5803 10.2154 26.7347 10.2154Z" fill="white"/>
</g>
<defs>
<clipPath id="clip0_85_8012">
<rect width="34.86" height="34.86" fill="white"/>
</clipPath>
</defs>
</svg>
